<svg width="172" height="160" viewBox="0 0 172 160" fill="none" xmlns="http://www.w3.org/2000/svg">
<ellipse cx="90.388" cy="79.5555" rx="73.3333" ry="73.3333" fill="#9BCEE1"/>
<path d="M112.922 123.2L117.633 111.161C117.633 111.161 122.067 113.063 135.251 113.128C146.515 113.184 153.211 111.161 153.211 111.161L157.851 123.2C157.851 123.2 151.358 126.222 135.983 126.222C120.476 126.222 112.922 123.2 112.922 123.2Z" fill="#00639A"/>
<path d="M153.172 111.149C153.172 112.38 144.214 113.725 135.585 113.725C126.742 113.725 117.602 112.38 117.602 111.149C117.602 109.918 127.405 108.918 135.585 108.918C143.762 108.918 153.172 109.918 153.172 111.149Z" fill="#0098C4"/>
<path d="M151.248 110.689C151.248 111.674 143.069 112.749 135.587 112.749C127.92 112.749 119.523 111.674 119.523 110.689C119.523 109.703 128.496 108.904 135.587 108.904C142.683 108.904 151.248 109.703 151.248 110.689Z" fill="#014266"/>
<path d="M72.5075 94.6268C72.5075 94.6268 84.5857 93.6572 86.6609 103.462C88.7362 113.267 86.5072 119.223 86.5072 119.223C86.5072 119.223 90.8816 119.178 92.5908 120.954C93.8499 121.659 94.2669 124.285 90.0768 124.285C84.6296 124.285 75.4758 124.271 68.6022 124.285C57.0511 124.307 56.3081 122.281 53.7168 120.411C32.2433 104.915 24.6816 76.2258 49.4455 52.7444C64.1187 38.832 77.0167 41.6065 91.0054 43.3024C92.8977 43.5312 109.474 33.7479 123.843 39.6709C135.149 44.3301 137.656 48.6989 141.778 53.2346C145.134 56.9279 142.971 58.1336 141.554 58.2171C139.885 58.3188 135.212 57.814 135.212 57.814C135.212 57.814 135.607 61.4709 134.48 65.8179C134.48 65.8179 137.309 68.0186 138.912 70.0341C140.497 72.0314 139.197 72.9611 137.894 73.2008C136.591 73.4441 130.289 73.4623 128.499 74.835C126.709 76.2077 118.13 81.7966 112.109 79.8574C112.109 79.8574 109.708 93.1742 114.1 97.1689C118.492 101.164 116.703 99.188 120.483 103.422C124.264 107.66 123.166 109.596 120.97 110.442C118.774 111.288 118.653 107.78 116.091 107.054C113.529 106.328 112.667 106.087 109.699 105.745C105.468 105.262 104.163 104.377 101.792 103.146L98.9587 106.386C98.9587 106.386 100.884 118.733 102.593 119.579C104.302 120.425 105.766 121.275 105.034 122.241C104.302 123.211 99.5041 122.669 99.5041 122.669C99.5041 122.669 88.2531 116.118 86.423 113.213" fill="white"/>
<path d="M128.767 56.4237C129.078 58.1587 130.143 59.0439 130.637 59.2697C131.502 59.5833 131.75 58.6131 131.671 58.0345C131.592 57.4558 130.8 56.3828 130.423 55.9142C130.047 55.4456 128.38 54.2549 128.767 56.4237Z" fill="#DDE6E8"/>
<path d="M131.448 70.636C131.555 71.9743 130.924 72.7426 130.595 72.9594C130.003 73.2775 129.624 72.5689 129.57 72.1248C129.516 71.6808 129.904 70.7965 130.096 70.4075C130.288 70.0185 131.314 68.9631 131.448 70.636Z" fill="#DDE6E8"/>
<path d="M124.192 60.4705C124.973 61.3361 126.332 61.5338 127.079 60.4705C128.035 59.1098 127.228 56.1919 125.086 56.5642C124.373 56.7431 123.876 57.0894 123.523 57.9754C123.17 58.8613 123.41 59.6048 124.192 60.4705Z" fill="#FFC75B"/>
<path d="M124.383 70.7794C124.756 69.8629 126.105 69.7354 126.883 70.2854C128.542 71.4585 128.26 73.8889 126.313 73.7243C125.838 73.6841 125.421 73.7598 124.772 73.1722C124.123 72.5845 124.011 71.696 124.383 70.7794Z" fill="#FFC75B"/>
<path d="M126.17 74.1517C125.016 74.0542 124.596 73.4114 124.264 72.396C124.443 70.9586 127.332 70.9986 127.975 72.184C128.132 73.1324 127.254 74.2435 126.17 74.1517Z" fill="#014266"/>
<path d="M127.115 60.7115C127.596 60.2291 127.613 59.1494 127.403 58.332C126.702 57.6682 124.62 57.8665 123.734 59.8394C124.317 61.1984 126.017 61.8103 127.115 60.7115Z" fill="#014266"/>
<path fill-rule="evenodd" clip-rule="evenodd" d="M79.4804 93.4436C77.3071 92.6737 75.1552 92.4411 73.7872 92.5103C73.5421 92.5227 73.3333 92.334 73.3209 92.0889C73.3085 91.8437 73.4972 91.635 73.7423 91.6226C75.2294 91.5473 77.4973 91.7981 79.7772 92.6058C82.0579 93.4138 84.3918 94.7942 85.9559 97.0098C87.8695 99.7204 88.4951 103.562 88.6093 107.151C88.7161 110.509 88.3757 113.723 88.1643 115.718C88.1489 115.863 88.1342 116.002 88.1204 116.134C88.0948 116.379 87.8762 116.556 87.6321 116.53C87.388 116.505 87.2108 116.286 87.2363 116.042C87.25 115.911 87.2646 115.773 87.2799 115.629C87.4913 113.631 87.8257 110.474 87.7209 107.179C87.608 103.631 86.987 100.012 85.2298 97.5225C83.8055 95.505 81.6529 94.2133 79.4804 93.4436Z" fill="#9BCEE1"/>
<path d="M118.882 67.1369L119.096 67.3595L118.962 67.6373L118.961 67.6387L118.96 67.6406L118.957 67.6462L118.949 67.6637C118.941 67.6781 118.931 67.6979 118.918 67.7226C118.891 67.7719 118.852 67.8407 118.8 67.9239C118.698 68.09 118.398 68.5598 118.18 68.8646C117.779 69.4246 116.922 70.3274 116.031 70.6314C115.798 70.7106 115.546 70.5865 115.467 70.3541C115.387 70.1218 115.512 69.8693 115.744 69.7901C116.435 69.5545 117.111 68.8646 117.559 68.2331C117.697 68.0714 117.906 67.6691 117.988 67.5455C117.301 66.7736 116.582 65.7463 114.968 65.078C114.797 64.9865 114.637 64.7383 114.779 64.4732C114.968 64.1199 115.165 64.2139 115.744 64.3831C117.392 65.078 118.183 66.4077 118.882 67.1369Z" fill="#9BCEE1"/>
<path fill-rule="evenodd" clip-rule="evenodd" d="M118.117 67.5795C118.117 67.334 118.316 67.135 118.562 67.135H121.445L121.446 67.5795L121.446 68.0239H118.562C118.316 68.0239 118.117 67.8249 118.117 67.5795ZM121.89 67.5795C121.89 67.8249 121.691 68.0239 121.446 68.0239L121.446 67.5795L121.445 67.135C121.69 67.135 121.89 67.334 121.89 67.5795Z" fill="#9BCEE1"/>
<path d="M122.407 65.6567L121.768 65.8667L120.484 67.5795L121.626 69.1095L122.407 69.5022C122.407 69.5022 122.713 68.6508 122.713 67.5795C122.713 66.5081 122.407 65.6567 122.407 65.6567Z" fill="#F49777"/>
<path d="M69.5322 124.286C69.5322 124.286 50.2898 123.8 49.8211 123.789C44.9338 123.686 30.6281 123.88 19.0501 123.88C7.47212 123.88 0.478109 123.57 0.314453 122.627C0.314501 120.423 5.27623 117.07 13.5446 116.439C21.8092 115.808 32.2408 114.031 34.6733 112.992C40.9555 110.312 38.8266 103.136 38.8266 103.136" fill="url(#paint0_linear)"/>
<path d="M151.201 107.283C151.201 107.283 156.558 110.138 157.489 112.498C158.196 114.29 157.636 115.936 156.836 117.665C156.036 119.394 155.008 122.307 157.25 123.298C158.104 123.754 159.703 123.235 160.059 123.147C160.414 123.06 160.819 123.492 160.015 123.852C159.21 124.211 157.202 124.667 156.153 123.735C155.105 122.803 154.574 121.754 155.091 119.637C155.612 117.519 156.899 115.062 156.587 113.766C156.275 112.469 153.383 110.139 150.277 109.124L151.201 107.283Z" fill="#FFB596"/>
<path d="M137.74 109.993C137.74 109.993 136.743 108.626 138.269 108.204C139.799 107.781 142.172 108.332 142.362 108.206C142.552 108.079 143.371 108.283 142.669 108.715C141.962 109.148 140.504 109.075 139.598 109.58C138.696 110.09 138.269 110.505 137.74 109.993Z" fill="#FFB596"/>
<path d="M134.981 90.4162C134.981 90.4162 133.763 89.2024 132.545 89.8093C131.677 90.2418 131.908 91.7201 133.154 91.6301C133.552 91.47 134.473 91.4892 134.981 91.6301C135.488 91.7645 134.981 90.4162 134.981 90.4162Z" fill="#CAD4D7"/>
<path d="M142.312 109.347C142.312 109.347 136.467 108.577 135.994 104.061C135.585 100.176 138.5 98.7411 139.017 98.275C139.105 98.1924 139.158 98.0904 139.163 97.969C139.212 97.2358 138.349 95.1185 137.623 94.6864C137.072 94.361 136.363 95.8616 135.959 96.2355C135.749 96.4298 135.427 96.4055 135.256 96.1772C134.808 95.5654 134.127 93.351 134.215 92.0544C134.341 90.1751 136.204 88.393 139.207 88.1307C142.21 87.8685 145.15 88.6892 148.08 91.258C152.587 94.3942 154.434 102.22 151.663 108.204C150.556 111.229 142.312 109.347 142.312 109.347Z" fill="#DDE2E3"/>
<ellipse cx="136.421" cy="93.0133" rx="0.461899" ry="0.46032" fill="#60696C"/>
<path d="M145.196 110.045C145.196 110.045 144.431 108.188 147.044 108.204C148.628 108.214 150.063 109.658 150.277 109.585C150.496 109.517 151.072 109.822 150.277 110.045C149.478 110.273 148.592 109.871 147.583 110.114C146.574 110.362 145.658 110.506 145.196 110.045Z" fill="#FFB596"/>
<path d="M135.186 96.0752L135.959 95.7751L136.053 96.2355C136.053 96.2355 135.888 96.4637 135.59 96.4443C135.293 96.4249 135.186 96.0752 135.186 96.0752Z" fill="black"/>
<path fill-rule="evenodd" clip-rule="evenodd" d="M139.31 88.4946C138.866 88.3475 138.489 88.3827 138.174 88.5252C137.863 88.6663 137.622 88.9084 137.441 89.1613C137.259 89.4146 137.133 89.6843 137.053 89.8894C137.012 89.9923 136.983 90.0796 136.964 90.1416C136.954 90.1726 136.947 90.1972 136.942 90.2144L136.937 90.2343L136.936 90.2397L136.935 90.2412L136.935 90.2417L136.935 90.2419C136.935 90.2419 136.935 90.242 137.043 90.269L136.935 90.242C136.92 90.3015 136.956 90.3618 137.016 90.3768C137.075 90.3917 137.136 90.3556 137.151 90.296" fill="#595959"/>
<path d="M138.53 96.823C138.53 96.823 138.018 97.6194 138.291 98.2798C138.564 98.9402 139.271 98.4109 139.729 98.8868C140.188 99.3627 140.002 99.7657 140.149 99.8677C140.465 100.081 140.758 99.9648 140.782 99.5618C140.802 99.1587 140.929 98.7411 140.383 98.3235C139.885 97.9399 138.92 97.0026 138.896 96.6433C138.871 96.284 138.53 96.823 138.53 96.823Z" fill="#FFB596"/>
<path d="M144.717 96.2793C144.717 96.2793 144.013 97.8001 143.349 98.0769C142.686 98.3489 141.572 98.2411 141.226 98.6539C140.885 99.0618 140.914 99.7853 141.401 99.897C141.884 100.014 141.63 99.324 142.079 99.3386C142.523 99.3532 144.014 99.7999 144.746 99.4648C145.477 99.1249 146.583 98.0769 146.583 98.0769L145.55 97.605L145.56 96.9154L145.077 97.1874L144.717 96.2793Z" fill="#FFB596"/>
<path d="M137.041 90.8252C137.041 90.8252 137.753 89.4139 138.157 89.1565C138.942 88.6612 140.115 88.8739 140.115 89.9863C140.203 90.3311 139.514 90.8403 138.89 90.8355C138.266 90.8306 137.806 91.1719 137.806 91.1719L137.041 90.8252Z" fill="#FFB596"/>
<path d="M133.943 50.2749L135.404 57.5677C135.404 57.5677 138.933 57.9164 140.016 57.9264C141.374 57.9363 142.32 58.2286 142.582 57.0563C142.852 55.8574 138.961 52.2675 133.943 50.2749Z" fill="#FFB596"/>
<path d="M133.495 68.5408C133.495 68.5408 133.532 71.1981 130.766 73.4689C130.766 73.4689 133.212 73.1202 134.941 73.1454C136.67 73.1707 138.131 73.0002 138.433 72.8044C138.727 72.6117 138.969 72.119 138.433 71.6453C137.897 71.1716 134.594 68.8819 133.495 68.5408Z" fill="#FFB596"/>
<defs>
<linearGradient id="paint0_linear" x1="0.763919" y1="124.286" x2="39.7735" y2="118.568" gradientUnits="userSpaceOnUse">
<stop stop-color="#F7F6F5"/>
<stop offset="1" stop-color="white"/>
</linearGradient>
</defs>
</svg>
